# xmcd CD database file
#
# Track frame offsets:
#	150
#	22034
#	41960
#	57677
#	77736
#	97137
#	112938
#	131569
#	153780
#	166486
#	189216
#	206907
#	227383
#	247219
#	269007
#	288373
#	309488
#	325151
#
# Disc length: 4572 seconds
#
# Revision: 1
# Processed by: cddbd v1.5.2PL0 Copyright (c) Steve Scherf et al.
# Submitted via: jetAudio 5
#
DISCID=0711da12
DTITLE=Анжелика Варум - Лучшие песни
DYEAR=1900
DGENRE=
TTITLE0=Все в твоих руках
TTITLE1=Дождливое такси
TTITLE2=Колыбельная
TTITLE3=Художник, что рисует дождь
TTITLE4=Февраль
TTITLE5=Королева
TTITLE6=Человек-свисток
TTITLE7=Ля-ля-фа
TTITLE8=Твои глаза
TTITLE9=Это все для тебя
TTITLE10=Симфония дождя
TTITLE11=Полуночный ковбой
TTITLE12=Одна
TTITLE13=Другая женщина
TTITLE14=Гуд бай, мой милый
TTITLE15=Зимняя вишня
TTITLE16=Вавилон
TTITLE17=Осенний джаз
EXTD=Звезды Российской эстрады
EXTT0=
EXTT1=
EXTT2=
EXTT3=
EXTT4=
EXTT5=
EXTT6=
EXTT7=
EXTT8=
EXTT9=
EXTT10=
EXTT11=
EXTT12=
EXTT13=
EXTT14=
EXTT15=
EXTT16=
EXTT17=
PLAYORDER=
